<svg enable-background="new 0 0 512 512" viewBox="0 0 512 512" xmlns="http://www.w3.org/2000/svg"><g id="star_x2C__sky_x2C__night"><g><g fill="#fdb455"><path d="m475.175 66.23-17.36 16.92 4.1 23.9-21.46-11.28-21.47 11.28 4.1-23.9-17.36-16.92 24-3.49 10.73-21.74 10.73 21.74z"/><path d="m435.725 400.18-17.36 16.92 4.1 23.9-21.47-11.28-21.46 11.28 4.1-23.9-17.36-16.92 23.99-3.49 10.73-21.74 10.73 21.74z"/><path d="m381.085 227.96-64.68 63.04 15.27 89.03-79.95-42.03-79.95 42.03 15.27-89.03-64.68-63.04 89.39-12.99 39.97-81 39.97 81z"/></g><path d="m115.725 116.23-17.36 16.92 4.1 23.9-21.47-11.28-21.46 11.28 4.1-23.9-17.36-16.92 23.99-3.49 10.73-21.74 10.73 21.74z" fill="#fdd844"/><path d="m106.275 440.18-17.37 16.92 4.1 23.9-21.46-11.28-21.46 11.28 4.1-23.9-17.36-16.92 23.99-3.49 10.73-21.74 10.73 21.74z" fill="#fdd844"/><g><g><path d="m165.725 151c-5.522 0-10-4.477-10-10v-100c0-5.523 4.478-10 10-10s10 4.477 10 10v100c0 5.523-4.477 10-10 10z" fill="#fdd844"/></g></g><g><path d="m345.725 131c-5.522 0-10-4.477-10-10v-40c0-5.523 4.478-10 10-10s10 4.477 10 10v40c0 5.523-4.477 10-10 10z" fill="#fdb455"/></g><g><path d="m245.725 451c-5.522 0-10-4.478-10-10v-40c0-5.522 4.478-10 10-10s10 4.478 10 10v40c0 5.522-4.477 10-10 10z" fill="#fdb455"/></g><g><path d="m445.725 301c-5.522 0-10-4.478-10-10v-100c0-5.523 4.478-10 10-10s10 4.477 10 10v100c0 5.522-4.477 10-10 10z" fill="#fdb455"/></g><g><path d="m65.725 351c-5.522 0-10-4.478-10-10v-100c0-5.523 4.478-10 10-10s10 4.477 10 10v100c0 5.522-4.477 10-10 10z" fill="#fdd844"/></g></g></g><g id="Layer_1"/></svg>